<?xml version="1.0" encoding="utf-8"?>
<!-- Generator: Adobe Illustrator 21.0.2, SVG Export Plug-In . SVG Version: 6.00 Build 0)  -->
<svg version="1.1" xmlns="http://www.w3.org/2000/svg" xmlns:xlink="http://www.w3.org/1999/xlink" x="0px" y="0px"
	 viewBox="0 0 36 36" style="enable-background:new 0 0 36 36;" xml:space="preserve">
<style type="text/css">
	.st0{opacity:0.2;filter:url(#dropshadow);}
	.st1{fill:#FBB03B;}
	.st2{fill:#FFFFFF;}
</style>
<filter  id="dropshadow">
	<feGaussianBlur  in="SourceGraphic" stdDeviation="2"></feGaussianBlur>
</filter>
<g id="Shadow">
	<g class="st0">
		<circle cx="18" cy="18" r="15"/>
	</g>
</g>
<g id="Background">
	<g>
		<path class="st1" d="M18,32c-7.7,0-14-6.3-14-14S10.3,4,18,4s14,6.3,14,14S25.7,32,18,32z"/>
		<path class="st2" d="M18,5c7.2,0,13,5.8,13,13s-5.8,13-13,13S5,25.2,5,18S10.8,5,18,5 M18,3C9.7,3,3,9.7,3,18s6.7,15,15,15
			s15-6.7,15-15S26.3,3,18,3L18,3z"/>
	</g>
</g>
<g id="Symbol">
	<title>Artboard 1</title>
	<path class="st2" d="M23.1,16.2h-2.4c0-1-0.1-2.6-1.1-3.2c-0.6-0.3-1.3-0.3-1.8,0.1c-1.6,0.9-2.9,2.3-3.6,4l-0.1,0.3l3.7,2
		l-1.2,3.8c-0.1,0.2,0,0.4,0.2,0.5l0,0h0.1c0.2,0,0.3-0.1,0.4-0.2l1.7-3.9c0.1-0.1,0.1-0.3-0.1-0.5l-2.7-1.8
		c0.5-1.1,1.2-2.2,1.9-3.1c0.2-0.3,0.6-0.5,1-0.4c0.6,0.4,0.8,1.9,0.7,2.8v0.6H23c0.2,0,0.4-0.3,0.4-0.5
		C23.4,16.5,23.3,16.2,23.1,16.2"/>
	<path class="st2" d="M22.6,11c0,1-0.8,1.8-1.8,1.8S19,12,19,11s0.8-1.8,1.8-1.8l0,0C21.7,9.2,22.5,10,22.6,11
		C22.5,11,22.5,11,22.6,11"/>
	<path class="st2" d="M12,26.6c-2.1,0-3.8-1.8-3.7-3.9s1.8-3.8,3.9-3.7c2.1,0,3.7,1.7,3.8,3.8C15.9,24.9,14.2,26.6,12,26.6
		C12.1,26.6,12.1,26.6,12,26.6 M12,19.7c-1.7,0-3,1.4-3,3.1s1.4,3,3.1,3s3-1.4,3-3.1C15.2,21,13.8,19.6,12,19.7
		C12.1,19.7,12.1,19.7,12,19.7"/>
	<path class="st2" d="M23.1,26.6c-2.1,0-3.8-1.8-3.7-3.9c0-2.1,1.8-3.8,3.9-3.7c2.1,0,3.7,1.7,3.8,3.8C27,24.9,25.3,26.6,23.1,26.6
		C23.2,26.6,23.2,26.6,23.1,26.6 M23.1,19.7c-1.7,0-3,1.4-3,3.1s1.4,3,3.1,3s3-1.4,3-3.1C26.3,21,24.9,19.6,23.1,19.7
		C23.2,19.7,23.2,19.7,23.1,19.7"/>
	<path class="st2" d="M12,23.1c-0.1,0-0.1,0-0.2,0c-0.2-0.1-0.3-0.3-0.2-0.5l0,0l2.2-4c0.1-0.2,0.3-0.3,0.5-0.1
		c0.2,0.1,0.3,0.3,0.2,0.5l0,0l-2.2,4C12.3,23.1,12.2,23.2,12,23.1"/>
	<path class="st2" d="M23.1,23.1c-0.2,0-0.3-0.1-0.4-0.3l-1.1-5.3c0-0.2,0.1-0.4,0.3-0.4l0,0c0.2,0,0.4,0.1,0.5,0.3l1.1,5.3
		C23.6,22.9,23.4,23.1,23.1,23.1C23.2,23.1,23.2,23.1,23.1,23.1L23.1,23.1"/>
	<path class="st2" d="M23.4,11.4l-5.1-1.2c0.4-1.4,1.8-2.2,3.2-1.9C22.9,8.6,23.8,10,23.4,11.4C23.5,11.4,23.5,11.4,23.4,11.4"/>
</g>
</svg>
