<svg xmlns="http://www.w3.org/2000/svg" viewBox="0 0 30 30"><title>Artboard 1</title><path d="M20.48,13.81H18.1c0-1-.12-2.56-1.07-3.15a1.76,1.76,0,0,0-1.84.09,8.28,8.28,0,0,0-3.65,4l-.11.3,3.71,2L14,20.83a.38.38,0,0,0,.21.5.4.4,0,0,0,.15,0,.39.39,0,0,0,.36-.23l1.71-3.91a.37.37,0,0,0-.07-.45s-2.74-1.84-2.74-1.84a16,16,0,0,1,1.94-3.11.9.9,0,0,1,1-.36c.61.37.75,1.88.7,2.77l0,.59h3.19c.21,0,.39-.29.39-.5s-.17-.5-.39-.5" fill="#fff"/><path d="M19.95,8.62a1.82,1.82,0,1,1-1.82-1.79,1.8,1.8,0,0,1,1.82,1.79" fill="#fff"/><path d="M9.45,24.16a3.83,3.83,0,1,1,3.91-3.83,3.87,3.87,0,0,1-3.91,3.83m0-6.9a3.07,3.07,0,1,0,3.13,3.07,3.1,3.1,0,0,0-3.13-3.07" fill="#fff"/><path d="M20.55,24.16a3.83,3.83,0,1,1,3.91-3.83,3.87,3.87,0,0,1-3.91,3.83m0-6.9a3.07,3.07,0,1,0,3.13,3.07,3.1,3.1,0,0,0-3.13-3.07" fill="#fff"/><path d="M9.45,20.71a.39.39,0,0,1-.18,0,.38.38,0,0,1-.16-.52l2.22-4a.39.39,0,0,1,.53-.15.38.38,0,0,1,.16.52l-2.22,4a.39.39,0,0,1-.34.2" fill="#fff"/><path d="M20.55,20.71a.39.39,0,0,1-.38-.31L19.1,15.14a.38.38,0,0,1,.3-.45.39.39,0,0,1,.46.3l1.07,5.26a.38.38,0,0,1-.3.45h-.08" fill="#fff"/><path d="M20.84,9,15.71,7.84a2.65,2.65,0,0,1,3.17-1.92,2.59,2.59,0,0,1,2,3.11" fill="#fff"/></svg>