<?xml version="1.0" encoding="utf-8"?>
<!-- Generator: Adobe Illustrator 21.0.2, SVG Export Plug-In . SVG Version: 6.00 Build 0)  -->
<svg version="1.1" xmlns="http://www.w3.org/2000/svg" xmlns:xlink="http://www.w3.org/1999/xlink" x="0px" y="0px"
	 viewBox="0 0 36 36" style="enable-background:new 0 0 36 36;" xml:space="preserve">
<style type="text/css">
	.st0{opacity:0.2;filter:url(#dropshadow);}
	.st1{fill:#21C180;}
	.st2{fill:#FFFFFF;}
</style>
<filter  id="dropshadow">
	<feGaussianBlur  in="SourceGraphic" stdDeviation="2"></feGaussianBlur>
</filter>
<g id="Shadow">
	<g class="st0">
		<circle cx="18" cy="18" r="15"/>
	</g>
</g>
<g id="Background">
	<g>
		<path class="st1" d="M18,32c-7.7,0-14-6.3-14-14S10.3,4,18,4s14,6.3,14,14S25.7,32,18,32z"/>
		<path class="st2" d="M18,5c7.2,0,13,5.8,13,13s-5.8,13-13,13S5,25.2,5,18S10.8,5,18,5 M18,3C9.7,3,3,9.7,3,18s6.7,15,15,15
			s15-6.7,15-15S26.3,3,18,3L18,3z"/>
	</g>
</g>
<g id="Symbol">
	<title>Artboard 1</title>
	<g>
		<path class="st2" d="M22.2,21.4h-8.5l-1.6,3.8h-3l7.4-16.8h2.9l7.3,16.8h-3L22.2,21.4z M21.1,18.9L18,11.4l-3.2,7.5H21.1z"/>
	</g>
</g>
</svg>
